<?xml version="1.0"?>
<svg xmlns="http://www.w3.org/2000/svg" xmlns:xlink="http://www.w3.org/1999/xlink" xmlns:svgjs="http://svgjs.com/svgjs" version="1.1" width="512" height="512" x="0" y="0" viewBox="0 0 512 512" style="enable-background:new 0 0 512 512" xml:space="preserve" class=""><g><g xmlns="http://www.w3.org/2000/svg"><path d="m120 0v422h-120v15c0 41.355 33.645 75 75 75h362c41.355 0 75-33.645 75-75v-437zm-45 482c-19.557 0-36.239-12.539-42.43-30h330.937c2.258 11.075 6.966 21.276 13.528 30zm407-45c0 24.813-20.187 45-45 45s-45-20.187-45-45v-15h-242v-392h332z" fill="#000000" data-original="#000000" style="" class=""/><path d="m210 151h212v30h-212z" fill="#000000" data-original="#000000" style="" class=""/><path d="m210 211h212v30h-212z" fill="#000000" data-original="#000000" style="" class=""/><path d="m210 271h212v30h-212z" fill="#000000" data-original="#000000" style="" class=""/></g></g></svg>
